<mxfile host="app.diagrams.net" modified="2021-10-05T07:52:21.012Z" agent="5.0 (Windows NT 10.0; Win64; x64) AppleWebKit/537.36 (KHTML, like Gecko) Chrome/94.0.4606.71 Safari/537.36" etag="63q_PuKABjmPKs7koIx9" version="15.4.1" type="github" pages="2">
  <diagram id="xktnysNyg5yojeHXHqyt" name="Page-1">
    <mxGraphModel dx="782" dy="625" grid="1" gridSize="10" guides="1" tooltips="1" connect="1" arrows="1" fold="1" page="1" pageScale="1" pageWidth="850" pageHeight="1100" math="0" shadow="0">
      <root>
        <mxCell id="0" />
        <mxCell id="1" parent="0" />
        <mxCell id="a9GYUkLsl5Jy0TmvEIVI-1" value="数据" style="shape=ext;double=1;rounded=0;whiteSpace=wrap;html=1;" vertex="1" parent="1">
          <mxGeometry x="90" y="240" width="70" height="40" as="geometry" />
        </mxCell>
        <mxCell id="a9GYUkLsl5Jy0TmvEIVI-2" value="网络" style="shape=ext;double=1;rounded=0;whiteSpace=wrap;html=1;" vertex="1" parent="1">
          <mxGeometry x="310" y="240" width="70" height="40" as="geometry" />
        </mxCell>
        <mxCell id="a9GYUkLsl5Jy0TmvEIVI-3" value="输出" style="shape=ext;double=1;rounded=0;whiteSpace=wrap;html=1;" vertex="1" parent="1">
          <mxGeometry x="440" y="240" width="70" height="40" as="geometry" />
        </mxCell>
        <mxCell id="a9GYUkLsl5Jy0TmvEIVI-4" value="标签" style="shape=ext;double=1;rounded=0;whiteSpace=wrap;html=1;" vertex="1" parent="1">
          <mxGeometry x="440" y="160" width="70" height="40" as="geometry" />
        </mxCell>
        <mxCell id="a9GYUkLsl5Jy0TmvEIVI-5" value="指标" style="shape=ext;double=1;rounded=0;whiteSpace=wrap;html=1;" vertex="1" parent="1">
          <mxGeometry x="550" y="200" width="70" height="40" as="geometry" />
        </mxCell>
        <mxCell id="a9GYUkLsl5Jy0TmvEIVI-6" value="干扰" style="shape=ext;double=1;rounded=0;whiteSpace=wrap;html=1;" vertex="1" parent="1">
          <mxGeometry x="90" y="160" width="70" height="40" as="geometry" />
        </mxCell>
        <mxCell id="a9GYUkLsl5Jy0TmvEIVI-8" value="降质图片" style="shape=ext;double=1;rounded=0;whiteSpace=wrap;html=1;" vertex="1" parent="1">
          <mxGeometry x="200" y="160" width="60" height="120" as="geometry" />
        </mxCell>
        <mxCell id="a9GYUkLsl5Jy0TmvEIVI-10" value="结果曲线" style="shape=ext;double=1;rounded=0;whiteSpace=wrap;html=1;" vertex="1" parent="1">
          <mxGeometry x="650" y="120" width="70" height="40" as="geometry" />
        </mxCell>
        <mxCell id="a9GYUkLsl5Jy0TmvEIVI-12" value="结果曲线" style="shape=ext;double=1;rounded=0;whiteSpace=wrap;html=1;" vertex="1" parent="1">
          <mxGeometry x="650" y="180" width="70" height="40" as="geometry" />
        </mxCell>
        <mxCell id="a9GYUkLsl5Jy0TmvEIVI-13" value="结果曲线" style="shape=ext;double=1;rounded=0;whiteSpace=wrap;html=1;" vertex="1" parent="1">
          <mxGeometry x="650" y="270" width="70" height="40" as="geometry" />
        </mxCell>
        <mxCell id="a9GYUkLsl5Jy0TmvEIVI-21" value="&lt;font style=&quot;font-size: 48px&quot;&gt;...&lt;/font&gt;" style="text;html=1;strokeColor=none;fillColor=none;align=center;verticalAlign=middle;whiteSpace=wrap;rounded=0;" vertex="1" parent="1">
          <mxGeometry x="655" y="220" width="60" height="30" as="geometry" />
        </mxCell>
      </root>
    </mxGraphModel>
  </diagram>
  <diagram id="oMCBJD11H9a38EzsJZl_" name="Page-2">
    <mxGraphModel dx="782" dy="625" grid="1" gridSize="10" guides="1" tooltips="1" connect="1" arrows="1" fold="1" page="1" pageScale="1" pageWidth="850" pageHeight="1100" math="0" shadow="0">
      <root>
        <mxCell id="U_W842l8lAIobfiXpHmZ-0" />
        <mxCell id="U_W842l8lAIobfiXpHmZ-1" parent="U_W842l8lAIobfiXpHmZ-0" />
        <mxCell id="U_W842l8lAIobfiXpHmZ-2" value="数据" style="shape=ext;double=1;rounded=0;whiteSpace=wrap;html=1;" vertex="1" parent="U_W842l8lAIobfiXpHmZ-1">
          <mxGeometry x="50" y="200" width="70" height="40" as="geometry" />
        </mxCell>
        <mxCell id="U_W842l8lAIobfiXpHmZ-4" value="网络" style="shape=ext;double=1;rounded=0;whiteSpace=wrap;html=1;" vertex="1" parent="U_W842l8lAIobfiXpHmZ-1">
          <mxGeometry x="180" y="200" width="70" height="40" as="geometry" />
        </mxCell>
        <mxCell id="U_W842l8lAIobfiXpHmZ-5" value="输出" style="shape=ext;double=1;rounded=0;whiteSpace=wrap;html=1;" vertex="1" parent="U_W842l8lAIobfiXpHmZ-1">
          <mxGeometry x="310" y="200" width="70" height="40" as="geometry" />
        </mxCell>
        <mxCell id="U_W842l8lAIobfiXpHmZ-6" value="标签" style="shape=ext;double=1;rounded=0;whiteSpace=wrap;html=1;" vertex="1" parent="U_W842l8lAIobfiXpHmZ-1">
          <mxGeometry x="310" y="120" width="70" height="40" as="geometry" />
        </mxCell>
        <mxCell id="U_W842l8lAIobfiXpHmZ-8" value="指标" style="shape=ext;double=1;rounded=0;whiteSpace=wrap;html=1;" vertex="1" parent="U_W842l8lAIobfiXpHmZ-1">
          <mxGeometry x="420" y="160" width="70" height="40" as="geometry" />
        </mxCell>
      </root>
    </mxGraphModel>
  </diagram>
</mxfile>
